<?xml version="1.0" encoding="utf-8" standalone="no"?>
<!DOCTYPE svg PUBLIC "-//W3C//DTD SVG 1.1//EN"
  "http://www.w3.org/Graphics/SVG/1.1/DTD/svg11.dtd">
<svg xmlns:xlink="http://www.w3.org/1999/xlink" width="768pt" height="768pt" viewBox="0 0 768 768" xmlns="http://www.w3.org/2000/svg" version="1.1">
 <metadata>
  <rdf:RDF xmlns:dc="http://purl.org/dc/elements/1.1/" xmlns:cc="http://creativecommons.org/ns#" xmlns:rdf="http://www.w3.org/1999/02/22-rdf-syntax-ns#">
   <cc:Work>
    <dc:type rdf:resource="http://purl.org/dc/dcmitype/StillImage"/>
    <dc:date>2023-04-03T10:55:07.096060</dc:date>
    <dc:format>image/svg+xml</dc:format>
    <dc:creator>
     <cc:Agent>
      <dc:title>Matplotlib v3.6.3, https://matplotlib.org/</dc:title>
     </cc:Agent>
    </dc:creator>
   </cc:Work>
  </rdf:RDF>
 </metadata>
 <defs>
  <style type="text/css">*{stroke-linejoin: round; stroke-linecap: butt}</style>
 </defs>
 <g id="figure_1">
  <g id="patch_1">
   <path d="M 0 768 
L 768 768 
L 768 0 
L 0 0 
L 0 768 
z
" style="fill: none"/>
  </g>
  <g id="axes_1">
   <g id="patch_2">
    <path d="M 96 683.52 
L 691.2 683.52 
L 691.2 92.16 
L 96 92.16 
L 96 683.52 
z
" style="fill: none"/>
   </g>
   <g id="matplotlib.axis_1">
    <g id="xtick_1">
     <g id="line2d_1">
      <defs>
       <path id="m30b46dcf6e" d="M 0 0 
L 0 10 
" style="stroke: #000000; stroke-width: 0.8"/>
      </defs>
      <g>
       <use xlink:href="#m30b46dcf6e" x="96" y="434.526316" style="stroke: #000000; stroke-width: 0.8"/>
      </g>
     </g>
    </g>
    <g id="xtick_2">
     <g id="line2d_2">
      <g>
       <use xlink:href="#m30b46dcf6e" x="393.6" y="434.526316" style="stroke: #000000; stroke-width: 0.8"/>
      </g>
     </g>
    </g>
    <g id="xtick_3">
     <g id="line2d_3">
      <g>
       <use xlink:href="#m30b46dcf6e" x="691.2" y="434.526316" style="stroke: #000000; stroke-width: 0.8"/>
      </g>
     </g>
    </g>
   </g>
   <g id="matplotlib.axis_2">
    <g id="ytick_1">
     <g id="line2d_4">
      <defs>
       <path id="mf7d20f78bc" d="M 0 0 
L -10 0 
" style="stroke: #000000; stroke-width: 0.8"/>
      </defs>
      <g>
       <use xlink:href="#mf7d20f78bc" x="393.6" y="683.52" style="stroke: #000000; stroke-width: 0.8"/>
      </g>
     </g>
    </g>
    <g id="ytick_2">
     <g id="line2d_5">
      <g>
       <use xlink:href="#mf7d20f78bc" x="393.6" y="434.526316" style="stroke: #000000; stroke-width: 0.8"/>
      </g>
     </g>
    </g>
    <g id="ytick_3">
     <g id="line2d_6">
      <g>
       <use xlink:href="#mf7d20f78bc" x="393.6" y="185.532632" style="stroke: #000000; stroke-width: 0.8"/>
      </g>
     </g>
    </g>
   </g>
   <g id="line2d_7">
    <path d="M 96 185.532632 
L 98.075926 205.142783 
L 100.137371 222.370634 
L 102.184436 237.524914 
L 104.217222 250.874056 
L 106.235828 262.651459 
L 108.240353 273.060063 
L 110.230896 282.27633 
L 112.207553 290.453701 
L 114.170422 297.725602 
L 116.396941 305.075741 
L 118.605718 311.543504 
L 120.796896 317.256112 
L 122.970615 322.322025 
L 125.127013 326.833721 
L 127.532429 331.344632 
L 129.916294 335.348457 
L 132.53999 339.298449 
L 135.137581 342.810199 
L 137.965088 346.254793 
L 141.014374 349.603054 
L 144.276736 352.840714 
L 147.742942 355.96551 
L 151.645352 359.174794 
L 155.961573 362.427218 
L 160.899946 365.856483 
L 166.418262 369.412367 
L 172.91192 373.321301 
L 180.28919 377.494485 
L 188.653227 381.963265 
L 197.671401 386.527706 
L 207.226951 391.112762 
L 217.02419 395.563758 
L 226.807537 399.763979 
L 236.677775 403.757253 
L 246.406168 407.454282 
L 256.082621 410.896756 
L 265.76373 414.106667 
L 275.474183 417.091007 
L 284.119078 419.549591 
L 284.119078 419.549591 
" clip-path="url(#pdb101c08be)" style="fill: none; stroke: #008000; stroke-width: 3; stroke-linecap: square"/>
   </g>
   <g id="line2d_8">
    <path d="M 127.326316 683.52 
L 129.183723 640.64881 
L 131.028174 603.522171 
L 132.859759 571.387604 
L 134.678567 543.590967 
L 136.484688 519.563599 
L 138.278211 498.811161 
L 140.059223 480.903919 
L 141.827811 465.468309 
L 143.584062 452.179594 
L 145.328062 440.755488 
L 147.059898 430.950608 
L 148.779652 422.551653 
L 150.48741 415.373213 
L 152.183256 409.254124 
L 153.867272 404.0543 
L 155.539542 399.651981 
L 157.200146 395.941337 
L 158.849167 392.830384 
L 160.486685 390.239182 
L 162.11278 388.098253 
L 163.727532 386.347219 
L 165.331021 384.933611 
L 166.923324 383.811837 
L 168.50452 382.942282 
L 170.2981 382.213401 
L 172.077388 381.724921 
L 174.062147 381.416079 
L 176.246585 381.319329 
L 178.624371 381.45387 
L 181.188662 381.826157 
L 184.141701 382.48506 
L 187.672396 383.51682 
L 191.951785 385.018004 
L 197.519622 387.227905 
L 206.335011 391.004025 
L 225.673788 399.324534 
L 236.241811 403.595545 
L 246.144761 407.36063 
L 255.976091 410.860784 
L 265.6647 414.075169 
L 275.382675 417.064015 
L 285.015935 419.793967 
L 294.658906 422.294432 
L 295.643386 422.536639 
L 295.643386 422.536639 
" clip-path="url(#pdb101c08be)" style="fill: none; stroke: #00700a; stroke-width: 3; stroke-linecap: square"/>
   </g>
   <g id="line2d_9">
    <path d="M 158.652632 185.532632 
L 160.29152 210.009708 
L 161.918977 231.400997 
L 163.535081 250.108076 
L 165.368258 268.646538 
L 167.186828 284.582525 
L 168.990907 298.29863 
L 170.780612 310.120911 
L 172.556056 320.327252 
L 174.317353 329.154484 
L 176.064615 336.804455 
L 177.797956 343.449198 
L 179.517485 349.235346 
L 181.435583 354.873353 
L 183.336496 359.732673 
L 185.220377 363.938902 
L 187.08738 367.596994 
L 189.142215 371.124845 
L 191.176604 374.183584 
L 193.391059 377.103379 
L 195.779209 379.856838 
L 198.138872 382.248047 
L 200.856262 384.675061 
L 203.725842 386.936411 
L 206.926421 389.175052 
L 210.622805 391.478915 
L 214.783252 393.80695 
L 219.720675 396.311196 
L 225.701182 399.085393 
L 232.76781 402.113321 
L 241.069965 405.424093 
L 250.239631 408.836914 
L 259.797943 412.15402 
L 269.466013 415.271781 
L 279.12442 418.151803 
L 288.767743 420.794423 
L 298.363666 423.193303 
L 307.167693 425.191792 
L 307.167693 425.191792 
" clip-path="url(#pdb101c08be)" style="fill: none; stroke: #006015; stroke-width: 3; stroke-linecap: square"/>
   </g>
   <g id="line2d_10">
    <path d="M 189.978947 683.52 
L 191.601417 639.867116 
L 193.210959 602.777113 
L 194.807676 571.277906 
L 196.39167 544.541166 
L 197.963043 521.861064 
L 199.521895 502.636159 
L 201.068326 486.353962 
L 202.602435 472.577787 
L 204.124319 460.935536 
L 205.634078 451.110156 
L 207.131806 442.831495 
L 208.617601 435.869371 
L 210.091556 430.027656 
L 211.553767 425.139246 
L 213.004327 421.061768 
L 214.443329 417.673922 
L 215.870864 414.872363 
L 217.287025 412.569051 
L 218.691902 410.688983 
L 220.085585 409.168267 
L 221.640208 407.819559 
L 223.180903 406.791599 
L 224.707793 406.029794 
L 226.388299 405.440336 
L 228.217548 405.045264 
L 230.190278 404.853989 
L 232.462074 404.873363 
L 235.019765 405.130785 
L 238.004346 405.661688 
L 241.694186 406.551043 
L 246.772169 408.023353 
L 255.736967 410.901095 
L 270.344347 415.556926 
L 280.388168 418.513836 
L 290.132176 421.149963 
L 299.697155 423.508507 
L 309.225883 425.631067 
L 318.692001 427.515052 
L 318.692001 427.515052 
" clip-path="url(#pdb101c08be)" style="fill: none; stroke: #005020; stroke-width: 3; stroke-linecap: square"/>
   </g>
   <g id="line2d_11">
    <path d="M 221.305263 185.532632 
L 222.848959 221.100787 
L 224.378823 250.907004 
L 225.894981 275.898712 
L 227.397554 296.8673 
L 228.886665 314.473823 
L 230.362435 329.270471 
L 231.824981 341.718501 
L 233.274424 352.203216 
L 234.710881 361.046475 
L 236.134467 368.517147 
L 237.545298 374.839836 
L 239.098069 380.745784 
L 240.635389 385.678457 
L 242.157412 389.812352 
L 243.664291 393.290376 
L 245.304546 396.497703 
L 246.926857 399.179048 
L 248.676416 401.623028 
L 250.405106 403.666429 
L 252.254592 405.523437 
L 254.358951 407.308181 
L 256.56908 408.890637 
L 259.148089 410.452468 
L 262.073731 411.953762 
L 265.577427 413.489382 
L 269.857029 415.11085 
L 275.302032 416.925274 
L 282.302522 419.014551 
L 290.859479 421.330115 
L 300.170551 423.618236 
L 309.651241 425.720401 
L 319.14413 427.599422 
L 328.676698 429.259584 
L 330.216308 429.506416 
L 330.216308 429.506416 
" clip-path="url(#pdb101c08be)" style="fill: none; stroke: #00402a; stroke-width: 3; stroke-linecap: square"/>
   </g>
   <g id="line2d_12">
    <path d="M 252.631579 683.52 
L 253.894603 638.855966 
L 255.14631 601.614494 
L 256.386803 570.571706 
L 257.616181 544.705354 
L 258.969243 521.002494 
L 260.308841 501.670108 
L 261.63511 485.914501 
L 262.948183 473.085878 
L 264.24819 462.652263 
L 265.535262 454.178137 
L 266.809528 447.306953 
L 268.071114 441.746824 
L 269.320147 437.2588 
L 270.556752 433.647267 
L 271.781053 430.7521 
L 272.993172 428.442221 
L 274.19323 426.610338 
L 275.381347 425.168631 
L 276.674626 423.948023 
L 277.953757 423.035233 
L 279.333219 422.317734 
L 280.809073 421.796353 
L 282.488311 421.445568 
L 284.361245 421.285209 
L 286.631339 421.325945 
L 289.37668 421.605634 
L 293.162474 422.232771 
L 299.483262 423.542996 
L 315.379176 426.883285 
L 325.051885 428.65521 
L 334.541062 430.168082 
L 341.740616 431.165888 
L 341.740616 431.165888 
" clip-path="url(#pdb101c08be)" style="fill: none; stroke: #003035; stroke-width: 3; stroke-linecap: square"/>
   </g>
   <g id="line2d_13">
    <path d="M 283.957895 185.532632 
L 285.157349 232.064717 
L 286.343681 269.465025 
L 287.517035 299.53566 
L 288.677553 323.722872 
L 289.825376 343.187331 
L 290.960641 358.860522 
L 292.083487 371.490003 
L 293.19405 381.675732 
L 294.292463 389.899208 
L 295.477031 397.084301 
L 296.64747 402.791717 
L 297.803948 407.335438 
L 298.946631 410.962481 
L 300.075683 413.867186 
L 301.283631 416.375331 
L 302.475977 418.366261 
L 303.742824 420.065445 
L 305.080623 421.496743 
L 306.572734 422.757554 
L 308.210643 423.839209 
L 310.068695 424.79256 
L 312.293865 425.674515 
L 315.090356 426.530809 
L 318.844598 427.433315 
L 324.384732 428.516578 
L 332.395454 429.843634 
L 341.705051 431.161202 
L 351.154476 432.275168 
L 353.264924 432.493463 
L 353.264924 432.493463 
" clip-path="url(#pdb101c08be)" style="fill: none; stroke: #002040; stroke-width: 3; stroke-linecap: square"/>
   </g>
   <g id="line2d_14">
    <path d="M 315.284211 683.52 
L 316.295727 624.955387 
L 317.294178 579.839032 
L 318.279734 545.090953 
L 319.25256 518.336348 
L 320.212822 497.744152 
L 321.160681 481.90254 
L 322.096297 469.722949 
L 323.019829 460.366065 
L 323.931433 453.184754 
L 324.831263 447.680069 
L 325.787317 443.187768 
L 326.73008 439.827901 
L 327.659736 437.322934 
L 328.576468 435.463137 
L 329.544542 434.007208 
L 330.498204 432.964482 
L 331.499798 432.186379 
L 332.607602 431.607389 
L 333.875087 431.20549 
L 335.3497 430.975781 
L 337.240589 430.913593 
L 339.98927 431.066124 
L 345.429383 431.642358 
L 357.120545 432.863588 
L 364.789231 433.489147 
L 364.789231 433.489147 
" clip-path="url(#pdb101c08be)" style="fill: none; stroke: #00114a; stroke-width: 3; stroke-linecap: square"/>
   </g>
   <g id="line2d_15">
    <path d="M 346.610526 185.532632 
L 347.402596 256.597021 
L 348.181314 307.202045 
L 348.946905 343.243912 
L 349.699592 368.919399 
L 350.439591 387.215669 
L 351.209528 400.897408 
L 351.965731 410.464806 
L 352.708443 417.160948 
L 353.437906 421.853134 
L 354.193782 425.297604 
L 354.935432 427.674099 
L 355.701042 429.390554 
L 356.488622 430.610195 
L 357.296157 431.465693 
L 358.227892 432.122409 
L 359.307605 432.604769 
L 360.718059 432.980114 
L 362.848966 433.293633 
L 367.026257 433.6412 
L 375.804892 434.130637 
L 376.313539 434.152934 
L 376.313539 434.152934 
" clip-path="url(#pdb101c08be)" style="fill: none; stroke: #000055; stroke-width: 3; stroke-linecap: square"/>
   </g>
   <g id="line2d_16">
    <path d="M 377.936842 683.52 
L 378.399758 571.056488 
L 378.863737 507.855924 
L 379.313553 473.864509 
L 379.763482 455.164304 
L 380.199241 445.310321 
L 380.634249 440.005962 
L 381.067675 437.212569 
L 381.498719 435.774743 
L 381.926617 435.052788 
L 382.395547 434.676319 
L 383.005751 434.486197 
L 384.080795 434.424871 
L 387.837846 434.48483 
L 387.837846 434.48483 
" clip-path="url(#pdb101c08be)" style="fill: none; stroke: #001060; stroke-width: 3; stroke-linecap: square"/>
   </g>
   <g id="line2d_17">
    <path d="M 409.263158 185.532632 
L 408.800242 297.755226 
L 408.336263 360.835031 
L 407.886447 394.775437 
L 407.436518 413.461235 
L 407.000759 423.320608 
L 406.565751 428.64055 
L 406.132325 431.454658 
L 405.701281 432.915449 
L 405.261716 433.675123 
L 404.782067 434.07597 
L 404.162514 434.29285 
L 403.062261 434.404019 
L 399.362154 434.484829 
L 399.362154 434.484829 
" clip-path="url(#pdb101c08be)" style="fill: none; stroke: #00206a; stroke-width: 3; stroke-linecap: square"/>
   </g>
   <g id="line2d_18">
    <path d="M 440.589474 683.52 
L 439.797404 611.049651 
L 439.018686 559.490908 
L 438.253095 522.815638 
L 437.500408 496.733224 
L 436.760409 478.189757 
L 436.032883 465.011578 
L 435.275925 455.194545 
L 434.532469 448.36667 
L 433.802276 443.623511 
L 433.085109 440.334083 
L 432.380735 438.05819 
L 431.650857 436.417612 
L 430.8974 435.268594 
L 430.122321 434.489402 
L 429.291894 433.963405 
L 428.306383 433.608931 
L 427.045713 433.408989 
L 425.22423 433.368178 
L 421.536208 433.55882 
L 410.886461 434.152935 
L 410.886461 434.152935 
" clip-path="url(#pdb101c08be)" style="fill: none; stroke: #003075; stroke-width: 3; stroke-linecap: square"/>
   </g>
   <g id="line2d_19">
    <path d="M 471.915789 185.532632 
L 470.904273 240.981436 
L 469.905822 283.775309 
L 468.920266 316.810549 
L 467.94744 342.320381 
L 466.987178 362.026761 
L 466.039319 377.257431 
L 465.103703 389.036172 
L 464.109626 398.761832 
L 463.129369 406.150536 
L 462.16274 411.771951 
L 461.209549 416.056653 
L 460.269611 419.330091 
L 459.277029 421.993355 
L 458.299226 424.004041 
L 457.272276 425.61794 
L 456.198996 426.894848 
L 455.020843 427.942088 
L 453.744454 428.777436 
L 452.259482 429.481431 
L 450.412095 430.100334 
L 447.966559 430.670081 
L 444.291043 431.275394 
L 437.978239 432.062682 
L 428.89528 432.969701 
L 422.410769 433.489146 
L 422.410769 433.489146 
" clip-path="url(#pdb101c08be)" style="fill: none; stroke: #004080; stroke-width: 3; stroke-linecap: square"/>
   </g>
   <g id="line2d_20">
    <path d="M 503.242105 683.52 
L 502.042651 631.708941 
L 500.856319 590.187028 
L 499.682965 556.921096 
L 498.522447 530.279523 
L 497.374624 508.952926 
L 496.239359 491.890528 
L 495.116513 478.249084 
L 494.00595 467.351901 
L 492.907537 458.655944 
L 491.821141 451.725441 
L 490.746629 446.2107 
L 489.683872 441.831108 
L 488.632741 438.361493 
L 487.593109 435.62117 
L 486.471932 433.293915 
L 485.364129 431.51288 
L 484.26954 430.160341 
L 483.098465 429.071758 
L 481.854216 428.235952 
L 480.540282 427.631521 
L 479.07479 427.212319 
L 477.382275 426.971946 
L 475.313684 426.92104 
L 472.66114 427.097411 
L 468.805282 427.599587 
L 458.914984 429.204207 
L 448.703954 430.732524 
L 439.21431 431.926509 
L 433.935076 432.493464 
L 433.935076 432.493464 
" clip-path="url(#pdb101c08be)" style="fill: none; stroke: #00508a; stroke-width: 3; stroke-linecap: square"/>
   </g>
   <g id="line2d_21">
    <path d="M 534.568421 185.532632 
L 533.305397 222.901951 
L 531.915305 257.32515 
L 530.539045 285.586455 
L 529.176479 308.801284 
L 527.82747 327.882895 
L 526.491885 343.579029 
L 525.169588 356.501915 
L 523.860449 367.152833 
L 522.564336 375.942223 
L 521.281119 383.206154 
L 520.010671 389.219802 
L 518.752864 394.20849 
L 517.383726 398.731391 
L 516.029567 402.435938 
L 514.690222 405.482113 
L 513.245823 408.204544 
L 511.818653 410.428486 
L 510.291757 412.395762 
L 508.669455 414.114974 
L 506.956294 415.606097 
L 505.045524 416.968435 
L 502.948049 418.191647 
L 500.461746 419.37743 
L 497.511118 420.53193 
L 493.736665 421.757155 
L 488.757737 423.125505 
L 481.970297 424.74881 
L 473.321228 426.582574 
L 463.953737 428.341472 
L 454.457551 429.898565 
L 445.459384 431.165887 
L 445.459384 431.165887 
" clip-path="url(#pdb101c08be)" style="fill: none; stroke: #006095; stroke-width: 3; stroke-linecap: square"/>
   </g>
   <g id="line2d_22">
    <path d="M 565.894737 683.52 
L 564.521878 641.809162 
L 563.159958 606.343237 
L 561.640765 572.762943 
L 560.135183 544.808459 
L 558.643091 521.551367 
L 557.164367 502.216217 
L 555.698893 486.155329 
L 554.246548 472.827743 
L 552.807216 461.78164 
L 551.380779 452.639658 
L 549.967123 445.086623 
L 548.566133 438.859308 
L 547.177695 433.737874 
L 545.801697 429.538721 
L 544.438028 426.108519 
L 543.086576 423.319221 
L 541.747233 421.063898 
L 540.41989 419.25326 
L 539.104439 417.812749 
L 537.656646 416.570922 
L 536.223258 415.63878 
L 534.663 414.902439 
L 532.98036 414.374027 
L 531.180142 414.053338 
L 529.13184 413.928621 
L 526.847273 414.017263 
L 524.078257 414.355009 
L 520.602478 415.013825 
L 515.744723 416.178588 
L 505.679293 418.882923 
L 493.703695 422.010779 
L 483.906243 424.336985 
L 474.337778 426.381344 
L 464.779624 428.195628 
L 456.983692 429.506417 
L 456.983692 429.506417 
" clip-path="url(#pdb101c08be)" style="fill: none; stroke: #0070a0; stroke-width: 3; stroke-linecap: square"/>
   </g>
   <g id="line2d_23">
    <path d="M 597.221053 185.532632 
L 595.598583 215.510273 
L 593.989041 241.164065 
L 592.392324 263.131593 
L 590.80833 281.956199 
L 589.236957 298.100915 
L 587.678105 311.960338 
L 586.131674 323.870746 
L 584.597565 334.118723 
L 583.075681 342.948505 
L 581.37805 351.444764 
L 579.69563 358.658982 
L 578.028284 364.800254 
L 576.375876 370.043266 
L 574.738273 374.533966 
L 573.115343 378.394295 
L 571.329136 382.067567 
L 569.560701 385.203732 
L 567.63574 388.145782 
L 565.731838 390.65476 
L 563.6786 392.994174 
L 561.481887 395.155361 
L 559.147917 397.142306 
L 556.520228 399.080606 
L 553.613899 400.94262 
L 550.288645 402.804024 
L 546.419988 404.711398 
L 541.755246 406.758577 
L 535.945995 409.055028 
L 528.733163 411.654879 
L 520.22889 414.475808 
L 510.961707 417.312615 
L 501.39817 420.005856 
L 491.824992 422.470759 
L 482.211415 424.715168 
L 472.66424 426.715431 
L 468.507999 427.515051 
L 468.507999 427.515051 
" clip-path="url(#pdb101c08be)" style="fill: none; stroke: #0080aa; stroke-width: 3; stroke-linecap: square"/>
   </g>
   <g id="line2d_24">
    <path d="M 628.547368 683.52 
L 626.90848 642.939128 
L 625.281023 607.771754 
L 623.664919 577.309093 
L 622.060088 550.934977 
L 620.466451 528.11376 
L 618.883932 508.379791 
L 617.312451 491.328277 
L 615.751932 476.607324 
L 614.202298 463.911034 
L 612.663474 452.97349 
L 611.135385 443.563535 
L 609.617954 435.48023 
L 608.111108 428.548907 
L 606.614774 422.617733 
L 605.128877 417.554733 
L 603.653346 413.245189 
L 602.188106 409.589389 
L 600.733088 406.500666 
L 599.28822 403.903691 
L 597.85343 401.732996 
L 596.428648 399.931679 
L 594.812492 398.262204 
L 593.209214 396.94726 
L 591.618711 395.932717 
L 590.040881 395.172477 
L 588.280845 394.572535 
L 586.343738 394.168251 
L 584.235175 393.981308 
L 581.961224 394.020228 
L 579.528376 394.281952 
L 576.577195 394.834327 
L 573.133447 395.716901 
L 568.875939 397.045883 
L 563.016728 399.122126 
L 550.618169 403.820453 
L 538.111852 408.451041 
L 527.938338 411.981097 
L 518.106948 415.157397 
L 508.419522 418.053556 
L 498.747226 420.711835 
L 489.122472 423.125108 
L 480.032307 425.191793 
L 480.032307 425.191793 
" clip-path="url(#pdb101c08be)" style="fill: none; stroke: #2190b5; stroke-width: 3; stroke-linecap: square"/>
   </g>
   <g id="line2d_25">
    <path d="M 659.873684 185.532632 
L 658.016277 207.719391 
L 656.171826 227.151415 
L 654.340241 244.186588 
L 652.521433 259.136068 
L 650.715312 272.27039 
L 648.921789 283.824773 
L 647.140777 294.003733 
L 645.372189 302.985093 
L 643.366047 311.980455 
L 641.37589 319.811727 
L 639.401591 326.648393 
L 637.443023 332.634921 
L 635.500061 337.894456 
L 633.57258 342.53198 
L 631.422517 347.116605 
L 629.291717 351.134555 
L 627.180009 354.675817 
L 624.855849 358.142532 
L 622.554815 361.198806 
L 620.050113 364.169904 
L 617.348951 367.029775 
L 614.45904 369.766603 
L 611.170877 372.555465 
L 607.717444 375.191231 
L 603.687617 377.975216 
L 599.11616 380.84813 
L 593.841606 383.888364 
L 587.729346 387.148291 
L 580.490833 390.748157 
L 572.267166 394.584596 
L 563.213898 398.559898 
L 553.656146 402.510307 
L 544.034033 406.247632 
L 534.285186 409.795139 
L 524.642889 413.069309 
L 514.931281 416.131896 
L 505.267384 418.945408 
L 495.656305 421.51205 
L 491.556614 422.536638 
L 491.556614 422.536638 
" clip-path="url(#pdb101c08be)" style="fill: none; stroke: #42a0c0; stroke-width: 3; stroke-linecap: square"/>
   </g>
   <g id="line2d_26">
    <path d="M 691.2 683.52 
L 689.419746 644.170112 
L 687.650142 609.403415 
L 685.891123 578.700052 
L 684.142627 551.598967 
L 682.404591 527.691263 
L 680.676951 506.614296 
L 678.959647 488.046451 
L 677.252615 471.702496 
L 675.555795 457.329474 
L 673.869125 444.703048 
L 672.192545 433.624265 
L 670.525995 423.916691 
L 668.869413 415.423857 
L 667.222742 408.007004 
L 665.585921 401.543082 
L 663.958891 395.922972 
L 662.341595 391.049909 
L 660.733973 386.838087 
L 659.135968 383.211419 
L 657.547522 380.102437 
L 655.968578 377.451318 
L 654.39908 375.205019 
L 652.838971 373.31651 
L 651.288194 371.744095 
L 649.490675 370.260038 
L 647.705695 369.104521 
L 645.933166 368.23275 
L 644.173002 367.60581 
L 642.176415 367.145944 
L 640.195737 366.918424 
L 637.986332 366.89439 
L 635.554648 367.104173 
L 632.907731 367.564946 
L 629.816865 368.349244 
L 626.300054 369.491358 
L 622.148925 371.090144 
L 616.952291 373.349137 
L 609.701953 376.771693 
L 576.648346 392.680946 
L 566.333562 397.251585 
L 556.437098 401.396472 
L 546.647802 405.258844 
L 536.872771 408.877663 
L 527.186646 412.228348 
L 517.534141 415.334252 
L 507.891283 418.204588 
L 503.080922 419.549592 
L 503.080922 419.549592 
" clip-path="url(#pdb101c08be)" style="fill: none; stroke: #60b0ca; stroke-width: 3; stroke-linecap: square"/>
   </g>
   <g id="patch_3">
    <path d="M 393.6 683.52 
L 393.6 92.16 
" style="fill: none; stroke: #000000; stroke-width: 3; stroke-linejoin: miter; stroke-linecap: square"/>
   </g>
   <g id="patch_4">
    <path d="M 691.2 683.52 
L 691.2 92.16 
" style="fill: none"/>
   </g>
   <g id="patch_5">
    <path d="M 96 434.526316 
L 691.2 434.526316 
" style="fill: none; stroke: #000000; stroke-width: 3; stroke-linejoin: miter; stroke-linecap: square"/>
   </g>
   <g id="patch_6">
    <path d="M 96 92.16 
L 691.2 92.16 
" style="fill: none"/>
   </g>
  </g>
 </g>
 <defs>
  <clipPath id="pdb101c08be">
   <rect x="96" y="92.16" width="595.2" height="591.36"/>
  </clipPath>
 </defs>
</svg>
